<?xml version="1.0" encoding="utf-8"?>
<!-- Generator: Adobe Illustrator 24.2.0, SVG Export Plug-In . SVG Version: 6.00 Build 0)  -->
<svg version="1.1" id="Layer_1" xmlns="http://www.w3.org/2000/svg" xmlns:xlink="http://www.w3.org/1999/xlink" x="0px" y="0px"
	 viewBox="0 0 324 135.81" style="enable-background:new 0 0 324 135.81;" xml:space="preserve">
<style type="text/css">
	.st0{fill:#58595B;}
	.st1{fill:#0C4E9E;}
	.st2{fill:#094CA0;}
	.st3{display:none;fill:#FFFFFF;}
	.st4{fill:#D0D2D3;}
	.st5{fill:#F1AC1D;}
</style>
<g>
	<g>
		<g>
			<path class="st0" d="M131.89,101.86c-0.79-0.23-1.41-0.54-1.88-0.92l0.71-1.52c0.45,0.34,1,0.62,1.66,0.83
				c0.65,0.22,1.31,0.32,1.97,0.32c0.82,0,1.43-0.13,1.83-0.38c0.4-0.25,0.6-0.58,0.6-0.99c0-0.3-0.11-0.55-0.34-0.74
				c-0.22-0.2-0.51-0.35-0.86-0.46c-0.35-0.11-0.82-0.24-1.41-0.38c-0.84-0.19-1.51-0.38-2.03-0.57c-0.52-0.19-0.96-0.49-1.33-0.89
				c-0.37-0.41-0.56-0.95-0.56-1.64c0-0.58,0.16-1.11,0.49-1.58c0.33-0.48,0.83-0.85,1.49-1.13c0.66-0.28,1.48-0.42,2.44-0.42
				c0.67,0,1.33,0.08,1.98,0.24c0.65,0.16,1.21,0.39,1.68,0.69l-0.64,1.52c-0.48-0.27-0.98-0.48-1.51-0.62
				c-0.52-0.14-1.03-0.21-1.52-0.21c-0.81,0-1.4,0.13-1.8,0.39c-0.39,0.26-0.59,0.61-0.59,1.04c0,0.3,0.11,0.55,0.34,0.74
				c0.22,0.19,0.51,0.34,0.86,0.45s0.82,0.24,1.41,0.38c0.82,0.18,1.49,0.37,2.01,0.56c0.52,0.2,0.97,0.49,1.34,0.89
				c0.37,0.4,0.56,0.94,0.56,1.62c0,0.58-0.16,1.11-0.49,1.58c-0.33,0.47-0.83,0.85-1.5,1.13c-0.67,0.28-1.49,0.42-2.45,0.42
				C133.5,102.21,132.68,102.09,131.89,101.86z"/>
			<path class="st0" d="M140.72,92.39c-0.24-0.22-0.36-0.48-0.36-0.8c0-0.32,0.12-0.59,0.36-0.8c0.24-0.22,0.54-0.32,0.89-0.32
				c0.36,0,0.65,0.1,0.89,0.31c0.24,0.21,0.36,0.46,0.36,0.77c0,0.33-0.12,0.61-0.35,0.83c-0.24,0.23-0.54,0.34-0.9,0.34
				C141.25,92.71,140.96,92.61,140.72,92.39z M140.62,94.04h1.96v8.02h-1.96V94.04z"/>
			<path class="st0" d="M145.75,101.9c-0.65-0.17-1.17-0.39-1.55-0.65l0.75-1.43c0.38,0.24,0.83,0.43,1.36,0.58
				c0.53,0.15,1.05,0.22,1.56,0.22c1.17,0,1.76-0.3,1.76-0.89c0-0.28-0.15-0.48-0.45-0.59c-0.3-0.11-0.78-0.22-1.44-0.32
				c-0.69-0.1-1.25-0.22-1.69-0.35c-0.43-0.13-0.81-0.36-1.13-0.68c-0.32-0.33-0.48-0.78-0.48-1.36c0-0.76,0.33-1.37,1-1.82
				c0.66-0.46,1.56-0.68,2.69-0.68c0.58,0,1.15,0.06,1.73,0.19c0.58,0.13,1.05,0.29,1.41,0.5l-0.75,1.43c-0.71-0.4-1.51-0.6-2.4-0.6
				c-0.58,0-1.01,0.08-1.31,0.25s-0.45,0.38-0.45,0.65c0,0.3,0.16,0.51,0.48,0.64c0.32,0.13,0.81,0.24,1.48,0.35
				c0.67,0.1,1.22,0.22,1.65,0.35c0.43,0.13,0.8,0.35,1.11,0.66c0.31,0.31,0.46,0.75,0.46,1.32c0,0.75-0.34,1.35-1.02,1.8
				c-0.68,0.45-1.61,0.68-2.78,0.68C147.07,102.16,146.4,102.07,145.75,101.9z"/>
			<path class="st0" d="M158.28,101.62c-0.23,0.18-0.51,0.32-0.84,0.41c-0.33,0.09-0.68,0.14-1.04,0.14c-0.92,0-1.63-0.23-2.13-0.69
				c-0.5-0.46-0.75-1.13-0.75-2.01V95.6h-1.38v-1.5h1.38v-1.83h1.96v1.83h2.24v1.5h-2.24v3.81c0,0.39,0.1,0.69,0.3,0.89
				c0.2,0.21,0.49,0.31,0.86,0.31c0.44,0,0.81-0.11,1.1-0.33L158.28,101.62z"/>
			<path class="st0" d="M167.46,98.65h-6.58c0.11,0.59,0.42,1.06,0.9,1.4s1.09,0.52,1.81,0.52c0.92,0,1.68-0.29,2.28-0.87l1.05,1.16
				c-0.38,0.43-0.85,0.76-1.43,0.98c-0.58,0.22-1.22,0.33-1.95,0.33c-0.92,0-1.73-0.18-2.43-0.53c-0.7-0.35-1.24-0.84-1.62-1.46
				c-0.38-0.63-0.57-1.33-0.57-2.13c0-0.78,0.19-1.48,0.56-2.11c0.37-0.63,0.89-1.11,1.55-1.46c0.66-0.35,1.4-0.53,2.23-0.53
				c0.82,0,1.55,0.17,2.19,0.52c0.64,0.35,1.15,0.83,1.51,1.46c0.36,0.63,0.54,1.35,0.54,2.17
				C167.49,98.22,167.48,98.41,167.46,98.65z M161.66,95.98c-0.43,0.36-0.7,0.83-0.79,1.42h4.75c-0.08-0.58-0.34-1.05-0.77-1.41
				c-0.43-0.36-0.96-0.54-1.6-0.54C162.62,95.45,162.09,95.62,161.66,95.98z"/>
			<path class="st0" d="M182.46,94.82c0.62,0.59,0.93,1.46,0.93,2.64v4.6h-1.96V97.7c0-0.7-0.16-1.23-0.49-1.58
				c-0.32-0.36-0.79-0.53-1.4-0.53c-0.66,0-1.19,0.21-1.59,0.62c-0.4,0.42-0.6,1.01-0.6,1.78v4.07h-1.96V97.7
				c0-0.7-0.16-1.23-0.49-1.58c-0.32-0.36-0.79-0.53-1.4-0.53c-0.67,0-1.2,0.21-1.59,0.62c-0.39,0.41-0.59,1.01-0.59,1.79v4.07
				h-1.96v-8.02h1.87v1.02c0.31-0.36,0.71-0.64,1.18-0.83c0.47-0.19,0.99-0.29,1.57-0.29c0.63,0,1.18,0.11,1.67,0.34
				s0.87,0.56,1.15,1c0.35-0.42,0.79-0.75,1.33-0.98c0.54-0.24,1.15-0.35,1.8-0.35C181,93.95,181.84,94.24,182.46,94.82z"/>
			<path class="st0" d="M191.93,94.79c0.65,0.57,0.98,1.42,0.98,2.56v4.7h-1.85v-0.98c-0.24,0.35-0.58,0.62-1.03,0.8
				c-0.44,0.19-0.98,0.28-1.61,0.28c-0.63,0-1.18-0.1-1.65-0.31c-0.47-0.21-0.83-0.49-1.09-0.86c-0.26-0.37-0.38-0.78-0.38-1.24
				c0-0.72,0.28-1.3,0.84-1.73s1.44-0.65,2.64-0.65h2.17v-0.12c0-0.56-0.18-0.99-0.53-1.29c-0.35-0.3-0.87-0.45-1.56-0.45
				c-0.47,0-0.93,0.07-1.39,0.21c-0.45,0.14-0.84,0.34-1.15,0.59l-0.77-1.37c0.44-0.32,0.97-0.57,1.58-0.74
				c0.62-0.17,1.27-0.26,1.96-0.26C190.33,93.95,191.27,94.23,191.93,94.79z M190.14,100.47c0.38-0.22,0.65-0.52,0.81-0.92v-0.93
				h-2.02c-1.13,0-1.69,0.36-1.69,1.07c0,0.34,0.14,0.61,0.42,0.81c0.28,0.2,0.67,0.3,1.18,0.3
				C189.32,100.79,189.76,100.69,190.14,100.47z"/>
			<path class="st0" d="M207.96,90.91v11.14h-1.88v-1.04c-0.32,0.38-0.72,0.67-1.2,0.86c-0.48,0.19-1,0.29-1.58,0.29
				c-0.81,0-1.53-0.17-2.17-0.51c-0.64-0.34-1.15-0.82-1.51-1.45c-0.37-0.63-0.55-1.34-0.55-2.16c0-0.81,0.18-1.53,0.55-2.15
				c0.37-0.62,0.87-1.1,1.51-1.44c0.64-0.34,1.37-0.51,2.17-0.51c0.55,0,1.06,0.09,1.52,0.27c0.46,0.18,0.85,0.45,1.18,0.81v-4.11
				H207.96z M204.8,100.25c0.38-0.21,0.67-0.5,0.89-0.88c0.22-0.38,0.33-0.82,0.33-1.32c0-0.5-0.11-0.94-0.33-1.32
				c-0.22-0.38-0.52-0.67-0.89-0.88c-0.38-0.21-0.8-0.31-1.27-0.31c-0.47,0-0.89,0.1-1.27,0.31c-0.38,0.21-0.67,0.5-0.89,0.88
				c-0.22,0.38-0.33,0.82-0.33,1.32c0,0.5,0.11,0.94,0.33,1.32c0.22,0.38,0.52,0.67,0.89,0.88c0.38,0.21,0.8,0.31,1.27,0.31
				C204,100.55,204.43,100.45,204.8,100.25z"/>
			<path class="st0" d="M218.38,98.65h-6.58c0.11,0.59,0.42,1.06,0.9,1.4c0.49,0.35,1.09,0.52,1.81,0.52c0.92,0,1.68-0.29,2.28-0.87
				l1.05,1.16c-0.38,0.43-0.85,0.76-1.43,0.98c-0.58,0.22-1.22,0.33-1.95,0.33c-0.92,0-1.73-0.18-2.43-0.53
				c-0.7-0.35-1.24-0.84-1.62-1.46c-0.38-0.63-0.57-1.33-0.57-2.13c0-0.78,0.19-1.48,0.56-2.11c0.37-0.63,0.89-1.11,1.55-1.46
				c0.66-0.35,1.4-0.53,2.23-0.53c0.82,0,1.55,0.17,2.19,0.52c0.64,0.35,1.15,0.83,1.51,1.46c0.36,0.63,0.54,1.35,0.54,2.17
				C218.41,98.22,218.4,98.41,218.38,98.65z M212.58,95.98c-0.43,0.36-0.7,0.83-0.79,1.42h4.75c-0.08-0.58-0.34-1.05-0.77-1.41
				c-0.43-0.36-0.96-0.54-1.6-0.54C213.54,95.45,213.01,95.62,212.58,95.98z"/>
			<path class="st0" d="M224.81,91.54h2.04v10.51h-2.04V91.54z"/>
			<path class="st0" d="M236.93,94.83c0.64,0.59,0.96,1.47,0.96,2.63v4.6h-1.96V97.7c0-0.7-0.17-1.23-0.52-1.58
				c-0.35-0.36-0.84-0.53-1.48-0.53c-0.72,0-1.29,0.21-1.71,0.62c-0.42,0.42-0.63,1.01-0.63,1.79v4.05h-1.96v-8.02h1.87v1.04
				c0.32-0.37,0.73-0.65,1.22-0.84c0.49-0.19,1.05-0.29,1.66-0.29C235.44,93.95,236.29,94.24,236.93,94.83z"/>
			<path class="st0" d="M242.54,93.61v0.48h2.31v1.5h-2.24v6.46h-1.96V95.6h-1.38v-1.5h1.38v-0.51c0-0.86,0.26-1.54,0.78-2.03
				c0.52-0.5,1.26-0.74,2.21-0.74c0.75,0,1.34,0.15,1.77,0.44l-0.55,1.41c-0.33-0.22-0.7-0.33-1.08-0.33
				C242.96,92.32,242.54,92.75,242.54,93.61z"/>
			<path class="st0" d="M247.52,101.63c-0.68-0.35-1.21-0.84-1.59-1.46c-0.38-0.63-0.57-1.33-0.57-2.13c0-0.79,0.19-1.5,0.57-2.12
				c0.38-0.62,0.91-1.11,1.59-1.46c0.68-0.35,1.44-0.53,2.29-0.53c0.86,0,1.63,0.18,2.31,0.53c0.68,0.35,1.21,0.84,1.59,1.46
				c0.38,0.62,0.57,1.33,0.57,2.12c0,0.79-0.19,1.5-0.57,2.13c-0.38,0.63-0.91,1.11-1.59,1.46c-0.68,0.35-1.45,0.53-2.31,0.53
				C248.96,102.16,248.2,101.98,247.52,101.63z M251.6,99.86c0.47-0.46,0.71-1.07,0.71-1.82c0-0.75-0.24-1.36-0.71-1.82
				c-0.47-0.46-1.07-0.69-1.79-0.69c-0.72,0-1.32,0.23-1.78,0.69c-0.47,0.46-0.7,1.07-0.7,1.82c0,0.75,0.23,1.36,0.7,1.82
				c0.47,0.46,1.06,0.69,1.78,0.69C250.53,100.55,251.13,100.32,251.6,99.86z"/>
			<path class="st0" d="M261.01,93.95v1.79c-0.17-0.03-0.32-0.05-0.46-0.05c-0.76,0-1.36,0.21-1.79,0.64
				c-0.43,0.43-0.64,1.04-0.64,1.84v3.89h-1.96v-8.02h1.87v1.17C258.6,94.37,259.59,93.95,261.01,93.95z"/>
			<path class="st0" d="M275.76,94.82c0.62,0.59,0.93,1.46,0.93,2.64v4.6h-1.96V97.7c0-0.7-0.16-1.23-0.49-1.58
				c-0.32-0.36-0.79-0.53-1.4-0.53c-0.66,0-1.19,0.21-1.59,0.62c-0.4,0.42-0.6,1.01-0.6,1.78v4.07h-1.96V97.7
				c0-0.7-0.16-1.23-0.49-1.58c-0.32-0.36-0.79-0.53-1.4-0.53c-0.67,0-1.2,0.21-1.59,0.62c-0.39,0.41-0.59,1.01-0.59,1.79v4.07
				h-1.96v-8.02h1.87v1.02c0.31-0.36,0.71-0.64,1.18-0.83c0.47-0.19,0.99-0.29,1.57-0.29c0.63,0,1.18,0.11,1.67,0.34
				c0.49,0.23,0.87,0.56,1.15,1c0.35-0.42,0.79-0.75,1.33-0.98c0.54-0.24,1.15-0.35,1.8-0.35
				C274.31,93.95,275.15,94.24,275.76,94.82z"/>
			<path class="st0" d="M285.23,94.79c0.65,0.57,0.98,1.42,0.98,2.56v4.7h-1.85v-0.98c-0.24,0.35-0.58,0.62-1.03,0.8
				c-0.44,0.19-0.98,0.28-1.61,0.28c-0.63,0-1.18-0.1-1.65-0.31c-0.47-0.21-0.83-0.49-1.09-0.86c-0.26-0.37-0.38-0.78-0.38-1.24
				c0-0.72,0.28-1.3,0.84-1.73s1.44-0.65,2.64-0.65h2.17v-0.12c0-0.56-0.18-0.99-0.53-1.29c-0.35-0.3-0.87-0.45-1.56-0.45
				c-0.47,0-0.93,0.07-1.39,0.21c-0.45,0.14-0.84,0.34-1.15,0.59l-0.77-1.37c0.44-0.32,0.97-0.57,1.58-0.74
				c0.62-0.17,1.27-0.26,1.96-0.26C283.64,93.95,284.58,94.23,285.23,94.79z M283.45,100.47c0.38-0.22,0.65-0.52,0.81-0.92v-0.93
				h-2.02c-1.13,0-1.69,0.36-1.69,1.07c0,0.34,0.14,0.61,0.42,0.81c0.28,0.2,0.67,0.3,1.18,0.3
				C282.63,100.79,283.06,100.69,283.45,100.47z"/>
			<path class="st0" d="M290.31,101.63c-0.69-0.35-1.23-0.84-1.62-1.46c-0.39-0.63-0.58-1.33-0.58-2.13c0-0.79,0.19-1.5,0.58-2.12
				c0.39-0.62,0.92-1.11,1.61-1.46c0.69-0.35,1.47-0.53,2.35-0.53c0.83,0,1.55,0.16,2.17,0.48c0.62,0.32,1.09,0.78,1.4,1.38
				l-1.51,0.84c-0.24-0.37-0.54-0.65-0.9-0.83c-0.36-0.19-0.76-0.28-1.18-0.28c-0.73,0-1.34,0.23-1.82,0.68
				c-0.48,0.46-0.72,1.06-0.72,1.82c0,0.76,0.24,1.37,0.71,1.82c0.48,0.46,1.09,0.68,1.83,0.68c0.43,0,0.82-0.09,1.18-0.28
				c0.36-0.19,0.66-0.46,0.9-0.83l1.51,0.84c-0.32,0.6-0.8,1.06-1.42,1.39s-1.34,0.49-2.16,0.49
				C291.78,102.16,291,101.98,290.31,101.63z"/>
			<path class="st0" d="M298.02,92.39c-0.24-0.22-0.36-0.48-0.36-0.8c0-0.32,0.12-0.59,0.36-0.8c0.24-0.22,0.54-0.32,0.89-0.32
				c0.36,0,0.65,0.1,0.89,0.31c0.24,0.21,0.36,0.46,0.36,0.77c0,0.33-0.12,0.61-0.35,0.83c-0.24,0.23-0.54,0.34-0.9,0.34
				C298.55,92.71,298.26,92.61,298.02,92.39z M297.92,94.04h1.96v8.02h-1.96V94.04z"/>
			<path class="st0" d="M303.93,101.63c-0.68-0.35-1.21-0.84-1.59-1.46c-0.38-0.63-0.57-1.33-0.57-2.13c0-0.79,0.19-1.5,0.57-2.12
				c0.38-0.62,0.91-1.11,1.59-1.46c0.68-0.35,1.44-0.53,2.29-0.53c0.86,0,1.63,0.18,2.31,0.53c0.68,0.35,1.21,0.84,1.59,1.46
				c0.38,0.62,0.57,1.33,0.57,2.12c0,0.79-0.19,1.5-0.57,2.13c-0.38,0.63-0.91,1.11-1.59,1.46c-0.68,0.35-1.45,0.53-2.31,0.53
				C305.38,102.16,304.61,101.98,303.93,101.63z M308.01,99.86c0.47-0.46,0.71-1.07,0.71-1.82c0-0.75-0.24-1.36-0.71-1.82
				c-0.47-0.46-1.07-0.69-1.79-0.69c-0.72,0-1.32,0.23-1.78,0.69c-0.47,0.46-0.7,1.07-0.7,1.82c0,0.75,0.23,1.36,0.7,1.82
				c0.47,0.46,1.06,0.69,1.78,0.69C306.94,100.55,307.54,100.32,308.01,99.86z M307.01,90.88h2.31l-2.73,2.06h-1.69L307.01,90.88z"
				/>
			<path class="st0" d="M319.88,94.83c0.64,0.59,0.96,1.47,0.96,2.63v4.6h-1.96V97.7c0-0.7-0.17-1.23-0.52-1.58
				c-0.35-0.36-0.84-0.53-1.48-0.53c-0.72,0-1.29,0.21-1.71,0.62c-0.42,0.42-0.63,1.01-0.63,1.79v4.05h-1.96v-8.02h1.87v1.04
				c0.32-0.37,0.73-0.65,1.22-0.84c0.49-0.19,1.05-0.29,1.66-0.29C318.39,93.95,319.24,94.24,319.88,94.83z"/>
			<path class="st0" d="M138.69,108.71v11.26h-1.84v-1.05c-0.32,0.38-0.71,0.67-1.17,0.86c-0.46,0.19-0.98,0.29-1.54,0.29
				c-0.79,0-1.49-0.17-2.12-0.52c-0.63-0.34-1.12-0.83-1.48-1.46c-0.36-0.63-0.54-1.36-0.54-2.18c0-0.82,0.18-1.54,0.54-2.17
				c0.36-0.63,0.85-1.11,1.48-1.46c0.63-0.34,1.33-0.52,2.12-0.52c0.54,0,1.04,0.09,1.48,0.27c0.45,0.18,0.83,0.46,1.15,0.82v-4.16
				H138.69z M135.62,118.14c0.37-0.21,0.66-0.5,0.87-0.89c0.21-0.38,0.32-0.83,0.32-1.34c0-0.51-0.11-0.95-0.32-1.34
				c-0.21-0.38-0.51-0.68-0.87-0.89c-0.37-0.21-0.78-0.31-1.24-0.31s-0.87,0.1-1.24,0.31c-0.37,0.21-0.66,0.5-0.87,0.89
				c-0.21,0.38-0.32,0.83-0.32,1.34c0,0.51,0.11,0.95,0.32,1.34c0.21,0.38,0.51,0.68,0.87,0.89c0.37,0.21,0.78,0.31,1.24,0.31
				S135.25,118.35,135.62,118.14z"/>
			<path class="st0" d="M148.85,116.53h-6.41c0.11,0.6,0.41,1.07,0.88,1.42c0.47,0.35,1.06,0.52,1.77,0.52
				c0.9,0,1.64-0.29,2.22-0.88l1.03,1.17c-0.37,0.44-0.83,0.76-1.39,0.99c-0.56,0.22-1.19,0.33-1.9,0.33c-0.9,0-1.69-0.18-2.37-0.53
				c-0.68-0.35-1.21-0.85-1.58-1.48c-0.37-0.63-0.56-1.35-0.56-2.15c0-0.79,0.18-1.5,0.54-2.13c0.36-0.63,0.86-1.13,1.51-1.48
				c0.64-0.35,1.37-0.53,2.17-0.53c0.8,0,1.51,0.17,2.14,0.52c0.63,0.35,1.12,0.84,1.47,1.47c0.35,0.63,0.53,1.36,0.53,2.19
				C148.89,116.1,148.88,116.28,148.85,116.53z M143.2,113.83c-0.42,0.36-0.68,0.84-0.77,1.43h4.64c-0.08-0.59-0.33-1.06-0.75-1.43
				c-0.42-0.36-0.94-0.55-1.56-0.55C144.14,113.3,143.62,113.48,143.2,113.83z"/>
			<path class="st0" d="M157.3,111.02h-3.55v-1.67h9.09v1.67h-3.55v8.95h-1.99V111.02z"/>
			<path class="st0" d="M168.69,111.78v1.81c-0.16-0.03-0.31-0.05-0.44-0.05c-0.74,0-1.33,0.22-1.74,0.64
				c-0.42,0.43-0.63,1.05-0.63,1.86v3.93h-1.91v-8.1h1.82v1.18C166.33,112.2,167.3,111.78,168.69,111.78z"/>
			<path class="st0" d="M176.15,112.64c0.64,0.57,0.96,1.43,0.96,2.59v4.75h-1.81v-0.99c-0.23,0.35-0.57,0.62-1,0.81
				c-0.43,0.19-0.96,0.28-1.57,0.28c-0.61,0-1.15-0.1-1.61-0.31c-0.46-0.21-0.81-0.5-1.06-0.86c-0.25-0.37-0.38-0.79-0.38-1.25
				c0-0.73,0.27-1.31,0.82-1.75s1.41-0.66,2.58-0.66h2.11v-0.12c0-0.57-0.17-1-0.51-1.3c-0.34-0.3-0.85-0.46-1.52-0.46
				c-0.46,0-0.91,0.07-1.35,0.21c-0.44,0.14-0.82,0.34-1.12,0.59l-0.75-1.38c0.43-0.32,0.94-0.57,1.55-0.74
				c0.6-0.17,1.24-0.26,1.91-0.26C174.59,111.78,175.52,112.06,176.15,112.64z M174.41,118.37c0.37-0.22,0.64-0.53,0.79-0.93v-0.94
				h-1.97c-1.1,0-1.65,0.36-1.65,1.08c0,0.34,0.14,0.62,0.41,0.82c0.28,0.2,0.66,0.3,1.15,0.3
				C173.61,118.7,174.04,118.59,174.41,118.37z"/>
			<path class="st0" d="M186.22,112.29c0.63,0.34,1.12,0.83,1.48,1.46c0.36,0.63,0.54,1.35,0.54,2.17c0,0.82-0.18,1.55-0.54,2.18
				c-0.36,0.63-0.85,1.12-1.48,1.46c-0.63,0.34-1.34,0.52-2.14,0.52c-0.56,0-1.07-0.1-1.54-0.29c-0.46-0.19-0.85-0.48-1.17-0.86
				v1.05h-1.82v-11.26h1.91v4.14c0.33-0.35,0.71-0.62,1.16-0.8c0.44-0.18,0.93-0.27,1.46-0.27
				C184.89,111.78,185.6,111.95,186.22,112.29z M185.61,117.76c0.45-0.47,0.68-1.08,0.68-1.84c0-0.76-0.23-1.37-0.68-1.84
				c-0.45-0.47-1.03-0.7-1.74-0.7c-0.46,0-0.87,0.1-1.24,0.31c-0.37,0.21-0.66,0.5-0.87,0.89c-0.21,0.38-0.32,0.83-0.32,1.34
				c0,0.51,0.11,0.95,0.32,1.34c0.21,0.38,0.51,0.68,0.87,0.89c0.37,0.21,0.78,0.31,1.24,0.31
				C184.58,118.45,185.16,118.22,185.61,117.76z"/>
			<path class="st0" d="M195.84,112.64c0.64,0.57,0.96,1.43,0.96,2.59v4.75h-1.81v-0.99c-0.23,0.35-0.57,0.62-1,0.81
				c-0.43,0.19-0.96,0.28-1.57,0.28c-0.61,0-1.15-0.1-1.61-0.31c-0.46-0.21-0.81-0.5-1.06-0.86c-0.25-0.37-0.38-0.79-0.38-1.25
				c0-0.73,0.27-1.31,0.82-1.75s1.41-0.66,2.58-0.66h2.11v-0.12c0-0.57-0.17-1-0.51-1.3c-0.34-0.3-0.85-0.46-1.52-0.46
				c-0.46,0-0.91,0.07-1.35,0.21c-0.44,0.14-0.82,0.34-1.12,0.59l-0.75-1.38c0.43-0.32,0.94-0.57,1.55-0.74
				c0.6-0.17,1.24-0.26,1.91-0.26C194.28,111.78,195.2,112.06,195.84,112.64z M194.09,118.37c0.37-0.22,0.64-0.53,0.79-0.93v-0.94
				h-1.97c-1.1,0-1.65,0.36-1.65,1.08c0,0.34,0.14,0.62,0.41,0.82c0.28,0.2,0.66,0.3,1.15,0.3
				C193.29,118.7,193.72,118.59,194.09,118.37z"/>
			<path class="st0" d="M196.56,122.55l0.55-1.41c0.29,0.21,0.66,0.32,1.12,0.32c0.36,0,0.63-0.11,0.82-0.33
				c0.19-0.22,0.28-0.54,0.28-0.96v-8.3h1.91v8.25c0,0.9-0.25,1.61-0.75,2.12c-0.5,0.52-1.2,0.77-2.1,0.77
				C197.59,123.02,196.98,122.87,196.56,122.55z M199.41,110.21c-0.23-0.22-0.35-0.49-0.35-0.81c0-0.32,0.12-0.59,0.35-0.81
				c0.23-0.22,0.53-0.33,0.87-0.33c0.35,0,0.64,0.1,0.87,0.31c0.23,0.21,0.35,0.47,0.35,0.78c0,0.33-0.11,0.61-0.34,0.84
				c-0.23,0.23-0.52,0.34-0.88,0.34C199.94,110.53,199.65,110.43,199.41,110.21z"/>
			<path class="st0" d="M205.2,119.55c-0.66-0.35-1.18-0.85-1.55-1.48c-0.37-0.63-0.56-1.35-0.56-2.15c0-0.8,0.19-1.51,0.56-2.14
				c0.37-0.63,0.89-1.12,1.55-1.47c0.66-0.35,1.41-0.53,2.23-0.53c0.84,0,1.59,0.18,2.25,0.53c0.66,0.35,1.18,0.84,1.55,1.47
				c0.37,0.63,0.56,1.34,0.56,2.14c0,0.8-0.19,1.52-0.56,2.15c-0.37,0.63-0.89,1.13-1.55,1.48c-0.66,0.35-1.41,0.53-2.25,0.53
				C206.6,120.08,205.86,119.9,205.2,119.55z M209.18,117.76c0.46-0.47,0.69-1.08,0.69-1.84c0-0.76-0.23-1.37-0.69-1.84
				c-0.46-0.47-1.04-0.7-1.74-0.7c-0.7,0-1.28,0.23-1.74,0.7c-0.45,0.47-0.68,1.08-0.68,1.84c0,0.76,0.23,1.37,0.68,1.84
				c0.45,0.47,1.03,0.7,1.74,0.7C208.13,118.45,208.72,118.22,209.18,117.76z"/>
			<path class="st0" d="M214.21,119.82c-0.63-0.17-1.14-0.39-1.52-0.65l0.73-1.44c0.37,0.24,0.81,0.44,1.32,0.58
				c0.52,0.15,1.02,0.22,1.52,0.22c1.14,0,1.71-0.3,1.71-0.9c0-0.28-0.15-0.48-0.44-0.59c-0.29-0.11-0.76-0.22-1.4-0.32
				c-0.67-0.1-1.22-0.22-1.65-0.35c-0.42-0.13-0.79-0.36-1.1-0.69c-0.31-0.33-0.47-0.79-0.47-1.37c0-0.77,0.32-1.38,0.97-1.84
				c0.65-0.46,1.52-0.69,2.63-0.69c0.56,0,1.12,0.06,1.68,0.19c0.56,0.13,1.02,0.3,1.38,0.51l-0.73,1.44
				c-0.69-0.4-1.47-0.61-2.34-0.61c-0.56,0-0.99,0.08-1.28,0.25s-0.44,0.39-0.44,0.66c0,0.3,0.16,0.52,0.47,0.64
				c0.31,0.13,0.79,0.25,1.45,0.36c0.65,0.1,1.19,0.22,1.61,0.35c0.42,0.13,0.78,0.35,1.08,0.67c0.3,0.31,0.45,0.76,0.45,1.34
				c0,0.76-0.33,1.37-0.99,1.82c-0.66,0.46-1.57,0.68-2.71,0.68C215.49,120.08,214.84,119.99,214.21,119.82z"/>
			<path class="st0" d="M232.87,117.51h-5.36l-1.06,2.46h-2.05l4.82-10.62h1.96l4.84,10.62h-2.08L232.87,117.51z M232.21,115.97
				l-2.02-4.64l-2,4.64H232.21z"/>
			<path class="st0" d="M238.59,119.55c-0.67-0.35-1.2-0.85-1.58-1.48c-0.38-0.63-0.57-1.35-0.57-2.15c0-0.8,0.19-1.51,0.57-2.14
				c0.38-0.63,0.9-1.12,1.57-1.47c0.67-0.35,1.43-0.53,2.29-0.53c0.81,0,1.51,0.16,2.12,0.49c0.61,0.32,1.06,0.79,1.37,1.4
				l-1.47,0.85c-0.23-0.37-0.53-0.65-0.88-0.84c-0.35-0.19-0.74-0.28-1.16-0.28c-0.71,0-1.31,0.23-1.78,0.69
				c-0.47,0.46-0.7,1.08-0.7,1.84c0,0.77,0.23,1.38,0.7,1.84c0.46,0.46,1.06,0.69,1.78,0.69c0.42,0,0.8-0.09,1.16-0.28
				c0.35-0.19,0.65-0.47,0.88-0.84l1.47,0.85c-0.32,0.61-0.78,1.08-1.39,1.4s-1.31,0.49-2.1,0.49
				C240.03,120.08,239.27,119.9,238.59,119.55z"/>
			<path class="st0" d="M251.9,112.64c0.64,0.57,0.96,1.43,0.96,2.59v4.75h-1.81v-0.99c-0.23,0.35-0.57,0.62-1,0.81
				c-0.43,0.19-0.96,0.28-1.57,0.28c-0.61,0-1.15-0.1-1.61-0.31c-0.46-0.21-0.81-0.5-1.06-0.86c-0.25-0.37-0.38-0.79-0.38-1.25
				c0-0.73,0.27-1.31,0.82-1.75s1.41-0.66,2.58-0.66h2.11v-0.12c0-0.57-0.17-1-0.51-1.3c-0.34-0.3-0.85-0.46-1.52-0.46
				c-0.46,0-0.91,0.07-1.35,0.21c-0.44,0.14-0.82,0.34-1.12,0.59l-0.75-1.38c0.43-0.32,0.94-0.57,1.55-0.74
				c0.6-0.17,1.24-0.26,1.91-0.26C250.34,111.78,251.26,112.06,251.9,112.64z M250.16,118.37c0.37-0.22,0.64-0.53,0.79-0.93v-0.94
				h-1.97c-1.1,0-1.65,0.36-1.65,1.08c0,0.34,0.14,0.62,0.41,0.82c0.28,0.2,0.66,0.3,1.15,0.3
				C249.36,118.7,249.78,118.59,250.16,118.37z"/>
			<path class="st0" d="M263.39,108.71v11.26h-1.84v-1.05c-0.32,0.38-0.71,0.67-1.17,0.86c-0.46,0.19-0.98,0.29-1.54,0.29
				c-0.79,0-1.49-0.17-2.12-0.52c-0.63-0.34-1.12-0.83-1.48-1.46c-0.36-0.63-0.54-1.36-0.54-2.18c0-0.82,0.18-1.54,0.54-2.17
				c0.36-0.63,0.85-1.11,1.48-1.46c0.63-0.34,1.33-0.52,2.12-0.52c0.54,0,1.04,0.09,1.48,0.27c0.45,0.18,0.83,0.46,1.15,0.82v-4.16
				H263.39z M260.31,118.14c0.37-0.21,0.66-0.5,0.87-0.89c0.21-0.38,0.32-0.83,0.32-1.34c0-0.51-0.11-0.95-0.32-1.34
				c-0.21-0.38-0.51-0.68-0.87-0.89c-0.37-0.21-0.78-0.31-1.24-0.31c-0.46,0-0.87,0.1-1.24,0.31c-0.37,0.21-0.66,0.5-0.87,0.89
				c-0.21,0.38-0.32,0.83-0.32,1.34c0,0.51,0.11,0.95,0.32,1.34c0.21,0.38,0.51,0.68,0.87,0.89c0.37,0.21,0.78,0.31,1.24,0.31
				C259.53,118.45,259.95,118.35,260.31,118.14z"/>
			<path class="st0" d="M273.55,116.53h-6.41c0.11,0.6,0.41,1.07,0.88,1.42c0.47,0.35,1.06,0.52,1.77,0.52
				c0.9,0,1.64-0.29,2.22-0.88l1.03,1.17c-0.37,0.44-0.83,0.76-1.39,0.99c-0.56,0.22-1.19,0.33-1.9,0.33c-0.9,0-1.69-0.18-2.37-0.53
				c-0.68-0.35-1.21-0.85-1.58-1.48c-0.37-0.63-0.56-1.35-0.56-2.15c0-0.79,0.18-1.5,0.54-2.13c0.36-0.63,0.86-1.13,1.51-1.48
				c0.64-0.35,1.37-0.53,2.17-0.53c0.8,0,1.51,0.17,2.14,0.52c0.63,0.35,1.12,0.84,1.47,1.47c0.35,0.63,0.53,1.36,0.53,2.19
				C273.58,116.1,273.57,116.28,273.55,116.53z M267.9,113.83c-0.42,0.36-0.68,0.84-0.77,1.43h4.64c-0.08-0.59-0.33-1.06-0.75-1.43
				c-0.42-0.36-0.94-0.55-1.56-0.55C268.84,113.3,268.32,113.48,267.9,113.83z M270.19,108.68h2.25l-2.66,2.08h-1.65L270.19,108.68z
				"/>
			<path class="st0" d="M288.18,112.67c0.6,0.59,0.9,1.48,0.9,2.66v4.64h-1.91v-4.4c0-0.71-0.16-1.24-0.47-1.6
				c-0.32-0.36-0.77-0.54-1.36-0.54c-0.64,0-1.16,0.21-1.55,0.63c-0.39,0.42-0.58,1.02-0.58,1.8v4.11h-1.91v-4.4
				c0-0.71-0.16-1.24-0.47-1.6c-0.32-0.36-0.77-0.54-1.36-0.54c-0.65,0-1.17,0.21-1.55,0.62c-0.38,0.41-0.57,1.02-0.57,1.81v4.11
				h-1.91v-8.1h1.82v1.03c0.31-0.36,0.69-0.64,1.15-0.83c0.46-0.19,0.97-0.29,1.53-0.29c0.61,0,1.16,0.11,1.63,0.34
				c0.47,0.23,0.85,0.56,1.13,1.01c0.34-0.42,0.77-0.76,1.3-0.99c0.53-0.24,1.12-0.36,1.76-0.36
				C286.77,111.78,287.58,112.07,288.18,112.67z"/>
			<path class="st0" d="M291.63,110.21c-0.23-0.22-0.35-0.49-0.35-0.81c0-0.32,0.12-0.59,0.35-0.81c0.23-0.22,0.53-0.33,0.87-0.33
				c0.35,0,0.64,0.1,0.87,0.31c0.23,0.21,0.35,0.47,0.35,0.78c0,0.33-0.11,0.61-0.34,0.84c-0.23,0.23-0.52,0.34-0.88,0.34
				C292.15,110.53,291.86,110.43,291.63,110.21z M291.54,111.87h1.91v8.1h-1.91V111.87z"/>
			<path class="st0" d="M297.43,119.55c-0.67-0.35-1.2-0.85-1.58-1.48c-0.38-0.63-0.57-1.35-0.57-2.15c0-0.8,0.19-1.51,0.57-2.14
				c0.38-0.63,0.9-1.12,1.57-1.47c0.67-0.35,1.43-0.53,2.29-0.53c0.81,0,1.51,0.16,2.12,0.49c0.61,0.32,1.06,0.79,1.37,1.4
				l-1.47,0.85c-0.23-0.37-0.53-0.65-0.88-0.84c-0.35-0.19-0.74-0.28-1.16-0.28c-0.71,0-1.31,0.23-1.78,0.69
				c-0.47,0.46-0.7,1.08-0.7,1.84c0,0.77,0.23,1.38,0.7,1.84c0.46,0.46,1.06,0.69,1.78,0.69c0.42,0,0.8-0.09,1.16-0.28
				c0.35-0.19,0.65-0.47,0.88-0.84l1.47,0.85c-0.32,0.61-0.78,1.08-1.39,1.4c-0.61,0.33-1.31,0.49-2.1,0.49
				C298.86,120.08,298.1,119.9,297.43,119.55z"/>
			<path class="st0" d="M306.17,119.55c-0.66-0.35-1.18-0.85-1.55-1.48c-0.37-0.63-0.56-1.35-0.56-2.15c0-0.8,0.19-1.51,0.56-2.14
				c0.37-0.63,0.89-1.12,1.55-1.47c0.66-0.35,1.41-0.53,2.23-0.53c0.84,0,1.59,0.18,2.25,0.53c0.66,0.35,1.18,0.84,1.55,1.47
				c0.37,0.63,0.56,1.34,0.56,2.14c0,0.8-0.19,1.52-0.56,2.15c-0.37,0.63-0.89,1.13-1.55,1.48c-0.66,0.35-1.41,0.53-2.25,0.53
				C307.58,120.08,306.83,119.9,306.17,119.55z M310.15,117.76c0.46-0.47,0.69-1.08,0.69-1.84c0-0.76-0.23-1.37-0.69-1.84
				c-0.46-0.47-1.04-0.7-1.74-0.7c-0.7,0-1.28,0.23-1.74,0.7c-0.45,0.47-0.68,1.08-0.68,1.84c0,0.76,0.23,1.37,0.68,1.84
				c0.45,0.47,1.03,0.7,1.74,0.7C309.11,118.45,309.69,118.22,310.15,117.76z"/>
			<path class="st0" d="M315.18,119.82c-0.63-0.17-1.14-0.39-1.52-0.65l0.73-1.44c0.37,0.24,0.81,0.44,1.32,0.58
				c0.52,0.15,1.02,0.22,1.52,0.22c1.14,0,1.71-0.3,1.71-0.9c0-0.28-0.15-0.48-0.44-0.59c-0.29-0.11-0.76-0.22-1.4-0.32
				c-0.67-0.1-1.22-0.22-1.65-0.35c-0.42-0.13-0.79-0.36-1.1-0.69c-0.31-0.33-0.47-0.79-0.47-1.37c0-0.77,0.32-1.38,0.97-1.84
				c0.65-0.46,1.52-0.69,2.63-0.69c0.56,0,1.12,0.06,1.68,0.19c0.56,0.13,1.02,0.3,1.38,0.51l-0.73,1.44
				c-0.69-0.4-1.47-0.61-2.34-0.61c-0.56,0-0.99,0.08-1.28,0.25c-0.29,0.17-0.44,0.39-0.44,0.66c0,0.3,0.16,0.52,0.47,0.64
				c0.31,0.13,0.79,0.25,1.45,0.36c0.65,0.1,1.19,0.22,1.61,0.35c0.42,0.13,0.78,0.35,1.08,0.67c0.3,0.31,0.45,0.76,0.45,1.34
				c0,0.76-0.33,1.37-0.99,1.82c-0.66,0.46-1.57,0.68-2.71,0.68C316.47,120.08,315.82,119.99,315.18,119.82z"/>
		</g>
		<g>
			<path class="st1" d="M155.51,83.16c-13.76,0-24.54-6.31-25.39-19.7h20.04c0.34,4.38,2.72,5.13,4.59,5.13
				c1.87,0,3.65-0.84,3.65-2.95c-0.09-8.08-28.44-5.13-28.1-25.51c0-11.95,10.19-18.18,23.01-18.18c14.52,0,23.86,6.9,24.37,19.28
				h-20.29c-0.17-3.62-2.12-4.71-4.16-4.71c-1.53,0-2.72,1.01-2.72,3.03c0,7.49,27.94,6.23,27.94,24.58
				C178.43,75.08,170.02,83.16,155.51,83.16z"/>
			<path class="st1" d="M182.71,22.13c0-5.22,4.16-9.34,10.87-9.34c6.62,0,10.78,4.12,10.78,9.34c0,5.13-4.16,9.18-10.78,9.18
				C186.87,31.3,182.71,27.26,182.71,22.13z M184.07,35.09h18.85v47.48h-18.85V35.09z"/>
			<path class="st1" d="M209,22.97h50.61v14.82h-15.96v44.78h-18.85V37.79H209V22.97z"/>
			<path class="st1" d="M297.99,73.56h-20.04l-2.97,9.01H255.2l21.99-59.6h21.74l21.91,59.6h-19.87L297.99,73.56z M287.97,42.92
				l-5.43,16.58h10.87L287.97,42.92z"/>
		</g>
	</g>
	<g>
		<path class="st2" d="M83.03,108.21c-7.03,6.71-15.61,12.98-25.73,18.78c-21.78-12.51-36.49-27.25-43.71-43.84
			c-5.35-12.28-5.04-27.01-0.1-39.42l-2.65-9.48C2.22,49.46,0.49,69.51,7.56,85.73c7.91,18.16,23.88,34.14,47.47,47.48l2.28,1.29
			l2.26-1.29c12.91-7.3,23.54-15.37,31.82-24.15L83.03,108.21z M92.99,20.96c-3.16-2.93-8.18-6.1-15.8-9.99
			c-3.53-1.8-7.07-3.49-10.5-5.12c-2.4-1.14-4.89-2.33-7.35-3.54L57.3,1.3l-2.04,1.01c-2.4,1.19-4.84,2.35-7.2,3.47
			c-3.47,1.65-7.05,3.36-10.6,5.18c-7.58,3.88-12.58,7.05-15.73,9.98c-0.67,0.57-1.31,1.15-1.94,1.75L20.16,24
			c0.34-0.07,0.68-0.14,1.02-0.21v0l3.52-0.71c0.39-0.08,0.78-0.16,1.18-0.24l5.84-1.18c2.37-1.49,5.27-3.11,8.75-4.89
			c3.47-1.78,7.02-3.47,10.44-5.1c2.09-1,4.24-2.02,6.39-3.08c2.2,1.08,4.41,2.13,6.54,3.14c3.39,1.62,6.89,3.28,10.34,5.04
			c7.01,3.58,11.7,6.52,14.36,9l0.12,0.11c12.21,10.31,18.16,28.37,15.85,44.99c-0.18,1.36-0.43,2.71-0.73,4.04
			c-0.13,0.59-0.28,1.17-0.43,1.75l4.8,5.03l0.4,0.42C115.84,61.01,109.39,34.86,92.99,20.96z"/>
	</g>
	<g>
		<path class="st3" d="M17.66,22.98c3.59-0.48,7.71-0.78,12.27-0.69c2.67,0.06,5.17,0.25,7.47,0.51
			c2.92,17.01,5.84,34.01,8.76,51.02c1.14-2.39,9.06-18.31,25.98-21.74c5.64-1.14,10.62-0.56,14.17,0.26
			c2.16,0.44,7.39,1.8,12.11,6.32c4.4,4.21,6.02,8.92,6.6,11.04c1.54,3.63,3.28,8.86,3.91,15.34c0.5,5.06,0.18,9.43-0.32,12.79
			c0.25,0.08,3.89,1.28,4.94,5.05c1.09,3.93-1.68,6.88-1.82,7.02c-2.52-0.19-6.37-0.49-11.06-0.88c-13.71-1.13-16.5-1.52-28.23-2.5
			c-16.45-1.38-24.68-2.07-26.99-1.67c-1.21,0.21-5.2,0.99-10.14,0c-2.58-0.52-4.6-1.36-5.89-1.97c-2.15-2.48-4.7-6.3-4.78-11.06
			c-0.04-2.5,0.62-3.84,1.02-6.18c1.03-6-0.96-10.87-2.45-14.98c-2.82-7.77-7.57-22.96-14.02-43.28c0.54-0.88,1.08-1.75,1.61-2.63
			L17.66,22.98z"/>
		<g>
			<g>
				<g>
					<path class="st4" d="M100.69,72.42c0.31,0.11-10.43-10.89-10.43-10.89C59.34,51.06,46.48,85.97,46.48,85.97
						S75.95,63.53,100.69,72.42z"/>
				</g>
				<path class="st4" d="M104.43,89.55l-59.96-2.37l-11.7-61.37l-6.58,1.33C28.36,36.13,32.8,65,32.8,65l-9.81-36.89l-7.45,0.99
					c0.63,2.77,12.16,56.73,21.64,66.22c4.68,4.69,64.79,5.86,68.14,6.06L104.43,89.55z"/>
				<path class="st5" d="M102.12,81.45l-21.68,0.06c0.4-0.17,11.96-1.69,19.23-2.63l-5.35-5.61c0,0-7.16-0.69-13.83,0.66
					c-15.07,3.05-33.59,12.5-33.59,12.5s9.37-0.14,12.87-0.36c3.5-0.22,15.62-0.64,25.85-0.93c10.22-0.29,19.4-0.66,19.4-0.66
					L102.12,81.45z"/>
			</g>
			<path class="st2" d="M43.35,100.9c0.23-0.06,0.47-0.12,0.7-0.19c0.61-0.18,0.98-0.33,0.98-0.33l64.32,6.65l0.4-3.82l-67.38-6.98
				c0,0-1.38-0.15-2.99-0.94c-1.52-0.81-3.29-2.33-4.54-5.17c-0.03-0.08-0.06-0.15-0.08-0.23l-0.02,0.01l0.02-0.01L16.91,27.61
				l-3.39,0.98l13.44,48.1l0,0l3.25,11.31c0,0-2.06,6.89,3.13,11.25c2.89,2.4,6.56,2.3,9.02,1.85c0.27-0.05,0.54-0.1,0.82-0.17
				C43.23,100.93,43.29,100.92,43.35,100.9z"/>
		</g>
	</g>
</g>
</svg>
